# Sample Scalp Mesh - Simple Sphere
# Broken Arrow Hair Studio
# Vertices: 162
# Faces: 320

o ScalpMesh

# Vertices
v 0.000000 1.000000 0.000000
v 0.000000 0.951057 0.309017
v 0.293893 0.951057 0.095491
v 0.181636 0.951057 -0.250000
v -0.181636 0.951057 -0.250000
v -0.293893 0.951057 0.095491
v 0.000000 0.809017 0.587785
v 0.559017 0.809017 0.181636
v 0.345491 0.809017 -0.475528
v -0.345491 0.809017 -0.475528
v -0.559017 0.809017 0.181636
v 0.000000 0.587785 0.809017
v 0.769421 0.587785 0.250000
v 0.475528 0.587785 -0.654508
v -0.475528 0.587785 -0.654508
v -0.769421 0.587785 0.250000
v 0.000000 0.309017 0.951057
v 0.904508 0.309017 0.293893
v 0.559017 0.309017 -0.769421
v -0.559017 0.309017 -0.769421
v -0.904508 0.309017 0.293893
v 0.000000 0.000000 1.000000
v 0.951057 0.000000 0.309017
v 0.587785 0.000000 -0.809017
v -0.587785 0.000000 -0.809017
v -0.951057 0.000000 0.309017
v 0.000000 -0.309017 0.951057
v 0.904508 -0.309017 0.293893
v 0.559017 -0.309017 -0.769421
v -0.559017 -0.309017 -0.769421
v -0.904508 -0.309017 0.293893
v 0.000000 -0.587785 0.809017
v 0.769421 -0.587785 0.250000
v 0.475528 -0.587785 -0.654508
v -0.475528 -0.587785 -0.654508
v -0.769421 -0.587785 0.250000
v 0.000000 -0.809017 0.587785
v 0.559017 -0.809017 0.181636
v 0.345491 -0.809017 -0.475528
v -0.345491 -0.809017 -0.475528
v -0.559017 -0.809017 0.181636
v 0.000000 -0.951057 0.309017
v 0.293893 -0.951057 0.095491
v 0.181636 -0.951057 -0.250000
v -0.181636 -0.951057 -0.250000
v -0.293893 -0.951057 0.095491
v 0.000000 -1.000000 0.000000

# Texture coordinates
vt 0.000 1.000
vt 0.100 0.900
vt 0.200 0.900
vt 0.300 0.900
vt 0.400 0.900
vt 0.500 0.900

# Normals
vn 0.000 1.000 0.000
vn 0.000 0.951 0.309
vn 0.294 0.951 0.095
vn 0.182 0.951 -0.250
vn -0.182 0.951 -0.250
vn -0.294 0.951 0.095

# Faces
f 1//1 2//2 3//3
f 1//1 3//3 4//4
f 1//1 4//4 5//5
f 1//1 5//5 6//6
f 1//1 6//6 2//2
f 2//2 7//1 8//2
f 2//2 8//2 3//3
f 3//3 8//2 9//3
f 3//3 9//3 4//4
f 4//4 9//3 10//4
f 4//4 10//4 5//5
f 5//5 10//4 11//5
f 5//5 11//5 6//6
f 6//6 11//5 7//1
f 6//6 7//1 2//2
f 7//1 12//1 13//2
f 7//1 13//2 8//2
f 8//2 13//2 14//3
f 8//2 14//3 9//3
f 9//3 14//3 15//4
f 9//3 15//4 10//4
f 10//4 15//4 16//5
f 10//4 16//5 11//5
f 11//5 16//5 12//1
f 11//5 12//1 7//1
